<?xml version="1.0" encoding="UTF-8" standalone="no"?>
<!-- Generator: Adobe Illustrator 16.0.0, SVG Export Plug-In . SVG Version: 6.00 Build 0)  -->

<svg
   xmlns:dc="http://purl.org/dc/elements/1.1/"
   xmlns:cc="http://creativecommons.org/ns#"
   xmlns:rdf="http://www.w3.org/1999/02/22-rdf-syntax-ns#"
   xmlns:svg="http://www.w3.org/2000/svg"
   xmlns="http://www.w3.org/2000/svg"
   xmlns:sodipodi="http://sodipodi.sourceforge.net/DTD/sodipodi-0.dtd"
   xmlns:inkscape="http://www.inkscape.org/namespaces/inkscape"
   version="1.1"
   id="Layer_1"
   x="0px"
   y="0px"
   width="32px"
   height="32px"
   viewBox="0 0 32 32"
   enable-background="new 0 0 32 32"
   xml:space="preserve"
   sodipodi:docname="discord.svg"
   inkscape:version="0.92.4 (5da689c313, 2019-01-14)"><metadata
   id="metadata881"><rdf:RDF><cc:Work
       rdf:about=""><dc:format>image/svg+xml</dc:format><dc:type
         rdf:resource="http://purl.org/dc/dcmitype/StillImage" /></cc:Work></rdf:RDF></metadata><defs
   id="defs879" /><sodipodi:namedview
   pagecolor="#ffffff"
   bordercolor="#666666"
   borderopacity="1"
   objecttolerance="10"
   gridtolerance="10"
   guidetolerance="10"
   inkscape:pageopacity="0"
   inkscape:pageshadow="2"
   inkscape:window-width="1920"
   inkscape:window-height="1017"
   id="namedview877"
   showgrid="false"
   inkscape:zoom="9.391262"
   inkscape:cx="34.062391"
   inkscape:cy="26.651962"
   inkscape:window-x="1912"
   inkscape:window-y="-8"
   inkscape:window-maximized="1"
   inkscape:current-layer="Layer_1" />

<radialGradient
   id="gradient_1_"
   cx="-2503.1396"
   cy="1807.3066"
   r="162.7603"
   gradientTransform="matrix(-0.1526 -0.0598 -0.0716 0.1829 -234.1926 -471.5842)"
   gradientUnits="userSpaceOnUse">
	<stop
   offset="0"
   style="stop-color:#AA1A1A"
   id="stop851" />
	<stop
   offset="0.5518"
   style="stop-color:#5C0C0C"
   id="stop853" />
	<stop
   offset="0.7632"
   style="stop-color:#2A0303"
   id="stop855" />
	<stop
   offset="0.9261"
   style="stop-color:#170000"
   id="stop857" />
</radialGradient>




<path
   style="fill:#ffffff;stroke-width:0.11331607"
   d="M 8.0351528,26.269287 C 6.5635941,25.731314 4.559221,24.709355 3.1969351,23.802442 L 2.062441,23.047183 1.9855327,21.659746 C 1.7208021,16.883949 2.9106769,12.276898 5.5679329,7.7891134 L 6.2498022,6.6375198 7.0574898,6.3003336 C 8.0676948,5.8786044 9.7831513,5.3289632 10.816641,5.0958857 11.250024,4.9981422 11.710138,4.893978 11.839118,4.864399 c 0.196199,-0.044993 0.296839,0.075065 0.616076,0.7349611 l 0.381567,0.7887403 0.630402,-0.083488 c 0.793678,-0.1051132 4.517377,-0.1093425 5.286425,-0.00605 l 0.576647,0.077484 0.378664,-0.7827358 c 0.314278,-0.6496465 0.418537,-0.774395 0.613171,-0.7336816 1.730962,0.3620806 3.502771,0.9000544 4.885945,1.4835189 0.666276,0.2810547 0.704716,0.3212714 1.379487,1.4433122 2.678132,4.4533209 3.720926,8.6198469 3.570574,14.2663959 l -0.0263,0.987377 -1.196843,0.790451 c -1.392439,0.919633 -2.967048,1.743253 -4.423615,2.313833 -1.549734,0.607076 -1.529386,0.605893 -1.850823,0.107626 -0.344977,-0.534756 -1.14074,-1.932111 -1.14074,-2.003125 0,-0.0291 0.477345,-0.279045 1.060767,-0.555416 0.58342,-0.27637 1.091772,-0.552659 1.129667,-0.613977 0.0379,-0.06131 -0.04432,-0.21785 -0.182701,-0.347856 L 23.275883,22.4954 22.482807,22.832125 c -1.98647,0.843415 -4.068517,1.255289 -6.345566,1.255289 -2.275655,0 -4.30606,-0.400697 -6.3933949,-1.261721 L 8.9029498,22.478858 8.6329823,22.732479 c -0.2569553,0.241399 -0.2601181,0.261249 -0.065621,0.411818 0.1123903,0.087 0.6250324,0.358476 1.1392038,0.603261 0.5141719,0.244785 0.9348589,0.469667 0.9348589,0.499743 0,0.170086 -1.3743686,2.427919 -1.4731103,2.42005 -0.031161,-0.0026 -0.5410843,-0.181612 -1.1331609,-0.398064 z m 4.6005702,-6.912406 c 1.130261,-0.704286 1.625465,-2.459777 1.062818,-3.767681 -0.914515,-2.12585 -3.545415,-2.202479 -4.5910407,-0.133722 -0.3009301,0.595385 -0.3545753,1.810361 -0.1083949,2.454976 0.6255523,1.637984 2.2758226,2.294359 3.6366176,1.446427 z m 9.192518,0.116682 c 1.779326,-0.886677 2.051348,-3.61312 0.493526,-4.946559 -1.10209,-0.943346 -2.566326,-0.751137 -3.488514,0.45793 -0.4662,0.611231 -0.639298,1.253615 -0.570689,2.117862 0.06262,0.788722 0.357981,1.430039 0.895963,1.945388 0.791478,0.758176 1.708626,0.904308 2.669714,0.425379 z"
   id="path1521"
   inkscape:connector-curvature="0" /></svg>