<?xml version="1.0" encoding="UTF-8" standalone="no"?>
<!-- Generator: Adobe Illustrator 16.0.0, SVG Export Plug-In . SVG Version: 6.00 Build 0)  -->

<svg
   xmlns:dc="http://purl.org/dc/elements/1.1/"
   xmlns:cc="http://creativecommons.org/ns#"
   xmlns:rdf="http://www.w3.org/1999/02/22-rdf-syntax-ns#"
   xmlns:svg="http://www.w3.org/2000/svg"
   xmlns="http://www.w3.org/2000/svg"
   xmlns:sodipodi="http://sodipodi.sourceforge.net/DTD/sodipodi-0.dtd"
   xmlns:inkscape="http://www.inkscape.org/namespaces/inkscape"
   version="1.1"
   id="Layer_1"
   x="0px"
   y="0px"
   width="32px"
   height="32px"
   viewBox="0 0 32 32"
   enable-background="new 0 0 32 32"
   xml:space="preserve"
   sodipodi:docname="youtube.svg"
   inkscape:version="0.92.4 (5da689c313, 2019-01-14)"><metadata
   id="metadata881"><rdf:RDF><cc:Work
       rdf:about=""><dc:format>image/svg+xml</dc:format><dc:type
         rdf:resource="http://purl.org/dc/dcmitype/StillImage" /></cc:Work></rdf:RDF></metadata><defs
   id="defs879" /><sodipodi:namedview
   pagecolor="#ffffff"
   bordercolor="#666666"
   borderopacity="1"
   objecttolerance="10"
   gridtolerance="10"
   guidetolerance="10"
   inkscape:pageopacity="0"
   inkscape:pageshadow="2"
   inkscape:window-width="1920"
   inkscape:window-height="1017"
   id="namedview877"
   showgrid="false"
   inkscape:zoom="13.28125"
   inkscape:cx="30.237688"
   inkscape:cy="18.99818"
   inkscape:window-x="1912"
   inkscape:window-y="-8"
   inkscape:window-maximized="1"
   inkscape:current-layer="Layer_1" />

<radialGradient
   id="gradient_1_"
   cx="-2503.1396"
   cy="1807.3066"
   r="162.7603"
   gradientTransform="matrix(-0.1526 -0.0598 -0.0716 0.1829 -234.1926 -471.5842)"
   gradientUnits="userSpaceOnUse">
	<stop
   offset="0"
   style="stop-color:#AA1A1A"
   id="stop851" />
	<stop
   offset="0.5518"
   style="stop-color:#5C0C0C"
   id="stop853" />
	<stop
   offset="0.7632"
   style="stop-color:#2A0303"
   id="stop855" />
	<stop
   offset="0.9261"
   style="stop-color:#170000"
   id="stop857" />
</radialGradient>




<path
   style="fill:#ffffff;stroke-width:0.14441834"
   d="M 8.7869959,26.381779 C 6.9404837,26.291603 4.714265,26.026887 4.0888231,25.823137 3.263788,25.554364 2.4625853,24.899317 2.0060559,24.120308 1.529316,23.306812 1.2346667,21.509298 1.0633041,18.369025 0.87871287,14.986326 1.0711476,11.028745 1.5221796,8.9318845 1.8794538,7.2709013 2.9333455,6.1290186 4.4444315,5.7656487 7.0893554,5.1296251 22.042565,4.9784203 26.622661,5.5413847 c 3.10104,0.3811664 4.08322,1.3174749 4.583206,4.3691612 0.341779,2.0860541 0.346698,9.7881101 0.0076,11.8594501 -0.428151,2.615117 -1.369993,3.783266 -3.388053,4.202138 -1.700172,0.352889 -5.531468,0.506182 -11.961893,0.478601 -3.415494,-0.01465 -6.5999172,-0.04568 -7.0764979,-0.06895 z m 8.5006011,-8.235027 c 2.054139,-1.185237 3.737112,-2.216228 3.73994,-2.29109 0.0048,-0.12797 -7.494554,-4.532118 -7.727469,-4.538096 -0.05957,-0.0015 -0.10831,2.051304 -0.10831,4.56185 0,3.593374 0.03841,4.549488 0.180523,4.493469 0.09928,-0.03914 1.861181,-1.040896 3.91532,-2.226133 z"
   id="path1482"
   inkscape:connector-curvature="0" /></svg>